<svg width="38" height="38" viewBox="0 0 38 38" fill="none" xmlns="http://www.w3.org/2000/svg">
<circle cx="19" cy="19" r="19" fill="#BA75FE"/>
<path d="M17.5 28C17.5 28.5523 17.9477 29 18.5 29C19.0523 29 19.5 28.5523 19.5 28H17.5ZM19.2071 9.29289C18.8166 8.90237 18.1834 8.90237 17.7929 9.29289L11.4289 15.6569C11.0384 16.0474 11.0384 16.6805 11.4289 17.0711C11.8195 17.4616 12.4526 17.4616 12.8431 17.0711L18.5 11.4142L24.1569 17.0711C24.5474 17.4616 25.1805 17.4616 25.5711 17.0711C25.9616 16.6805 25.9616 16.0474 25.5711 15.6569L19.2071 9.29289ZM19.5 28V10H17.5V28H19.5Z" fill="white"/>
</svg>
