<svg width="20.000000" height="20.000000" viewBox="0 0 20 20" fill="none" xmlns="http://www.w3.org/2000/svg" xmlns:xlink="http://www.w3.org/1999/xlink">
	<desc>
			Created with Pixso.
	</desc>
	<defs>
		<clipPath id="clip151_1102">
			<rect id="Тема разговора" width="20.000000" height="20.000000" fill="white" fill-opacity="0"/>
		</clipPath>
	</defs>
	<g clip-path="url(#clip151_1102)">
		<path id="path" d="M10 18.33C5.39 18.33 1.66 14.6 1.66 10C1.66 5.39 5.39 1.66 10 1.66C14.6 1.66 18.33 5.39 18.33 10C18.33 11.12 18.1 12.2 17.7 13.18C17.49 13.69 17.23 14.17 16.92 14.63C16.82 14.78 17.01 15.73 17.5 17.5C15.73 17.01 14.78 16.82 14.62 16.92C14.17 17.23 13.69 17.49 13.18 17.7C12.2 18.1 11.12 18.33 10 18.33Z" fill="#000000" fill-opacity="0" fill-rule="nonzero"/>
		<path id="path" d="M1.66 10C1.66 5.39 5.39 1.66 10 1.66C14.6 1.66 18.33 5.39 18.33 10C18.33 11.12 18.1 12.2 17.7 13.18C17.49 13.69 17.23 14.17 16.92 14.63C16.82 14.78 17.01 15.73 17.5 17.5C15.73 17.01 14.78 16.82 14.62 16.92C14.17 17.23 13.69 17.49 13.18 17.7C12.2 18.1 11.12 18.33 10 18.33C5.39 18.33 1.66 14.6 1.66 10Z" stroke="#808080" stroke-opacity="1.000000" stroke-width="1.500000" stroke-linejoin="round"/>
	</g>
</svg>
