<svg width="20.000000" height="20.000000" viewBox="0 0 20 20" fill="none" xmlns="http://www.w3.org/2000/svg" xmlns:xlink="http://www.w3.org/1999/xlink">
	<desc>
			Created with Pixso.
	</desc>
	<defs>
		<clipPath id="clip151_1089">
			<rect id="Лайк" width="20.000000" height="20.000000" fill="white" fill-opacity="0"/>
		</clipPath>
	</defs>
	<g clip-path="url(#clip151_1089)">
		<path id="path" d="M6.4 3C3.96 3 2 5.15 2 7.8C2 12.61 7.2 16.98 10 18C12.8 16.98 18 12.61 18 7.8C18 5.15 16.03 3 13.6 3C12.11 3 10.79 3.8 10 5.04C9.2 3.8 7.88 3 6.4 3Z" fill="#808080" fill-opacity="1.000000" fill-rule="nonzero"/>
		<path id="path" d="M2 7.8C2 12.61 7.2 16.98 10 18C12.8 16.98 18 12.61 18 7.8C18 5.15 16.03 3 13.6 3C12.11 3 10.79 3.8 10 5.04C9.2 3.8 7.88 3 6.4 3C3.96 3 2 5.15 2 7.8Z" stroke="#808080" stroke-opacity="1.000000" stroke-width="1.500000" stroke-linejoin="round"/>
	</g>
</svg>
