<svg width="20.000000" height="20.000000" viewBox="0 0 20 20" fill="none" xmlns="http://www.w3.org/2000/svg" xmlns:xlink="http://www.w3.org/1999/xlink">
	<desc>
			Created with Pixso.
	</desc>
	<defs>
		<clipPath id="clip151_1087">
			<rect id="Лайк" width="20.000000" height="20.000000" fill="white" fill-opacity="0"/>
		</clipPath>
	</defs>
	<g clip-path="url(#clip151_1087)">
		<path id="path" d="M6.25 3.33C3.71 3.33 1.66 5.38 1.66 7.91C1.66 12.5 7.08 16.66 10 17.63C12.91 16.66 18.33 12.5 18.33 7.91C18.33 5.38 16.28 3.33 13.75 3.33C12.19 3.33 10.82 4.1 10 5.28C9.17 4.1 7.8 3.33 6.25 3.33Z" fill="#000000" fill-opacity="0" fill-rule="nonzero"/>
		<path id="path" d="M1.66 7.91C1.66 12.5 7.08 16.66 10 17.63C12.91 16.66 18.33 12.5 18.33 7.91C18.33 5.38 16.28 3.33 13.75 3.33C12.19 3.33 10.82 4.1 10 5.28C9.17 4.1 7.8 3.33 6.25 3.33C3.71 3.33 1.66 5.38 1.66 7.91Z" stroke="#808080" stroke-opacity="1.000000" stroke-width="1.500000" stroke-linejoin="round"/>
	</g>
</svg>
