<svg width="20" height="21" viewBox="0 0 20 21" fill="none" xmlns="http://www.w3.org/2000/svg">
<path d="M20 19.8526L16.7221 16.5747C18.4098 14.7179 19.3044 12.2747 19.2148 9.76707C19.1251 7.25947 18.0583 4.88638 16.2423 3.15487C14.4262 1.42337 12.005 0.470792 9.49597 0.500683C6.98695 0.530573 4.58911 1.54056 2.81484 3.31484C1.04056 5.08911 0.0305732 7.48695 0.000682754 9.99597C-0.0292077 12.505 0.923372 14.9262 2.65487 16.7423C4.38638 18.5583 6.75947 19.6251 9.26707 19.7148C11.7747 19.8044 14.2179 18.9098 16.0747 17.2221L19.3526 20.5L20 19.8526ZM0.984248 10.1464C0.984248 8.43321 1.49228 6.75846 2.44409 5.33398C3.3959 3.90949 4.74875 2.79924 6.33155 2.14362C7.91436 1.488 9.65603 1.31646 11.3363 1.65069C13.0166 1.98492 14.5601 2.80991 15.7715 4.02134C16.9829 5.23277 17.8079 6.77622 18.1422 8.45652C18.4764 10.1368 18.3048 11.8785 17.6492 13.4613C16.9936 15.0441 15.8834 16.3969 14.4589 17.3488C13.0344 18.3006 11.3596 18.8086 9.64642 18.8086C7.34907 18.8086 5.14581 17.896 3.52134 16.2715C1.89687 14.647 0.984248 12.4438 0.984248 10.1464Z" fill="#A2A8B0"/>
</svg>
