<svg width="24.000000" height="24.000000" viewBox="0 0 24 24" fill="none" xmlns="http://www.w3.org/2000/svg" xmlns:xlink="http://www.w3.org/1999/xlink">
	<desc>
			Created with Pixso.
	</desc>
	<defs/>
	<path id="Vector" d="M12 0C9.62 0 7.3 0.7 5.33 2.02C3.35 3.34 1.82 5.21 0.91 7.4C0 9.6 -0.24 12.01 0.23 14.34C0.69 16.66 1.83 18.8 3.51 20.48C5.19 22.16 7.33 23.3 9.65 23.76C11.98 24.23 14.39 23.99 16.59 23.08C18.78 22.17 20.65 20.64 21.97 18.66C23.29 16.69 24 14.37 24 12C24 10.42 23.68 8.86 23.08 7.4C22.48 5.95 21.6 4.62 20.48 3.51C19.37 2.4 18.04 1.51 16.59 0.91C15.13 0.31 13.57 -0.01 12 0ZM15.81 18.18C15.77 18.29 15.7 18.39 15.61 18.47C15.52 18.56 15.42 18.62 15.31 18.66C15.19 18.7 15.07 18.72 14.95 18.71C14.83 18.7 14.71 18.66 14.61 18.6L11.35 16.07L9.26 18C9.21 18.03 9.15 18.06 9.09 18.06C9.04 18.07 8.97 18.07 8.92 18.04L9.32 14.46L9.33 14.47L9.34 14.4C9.34 14.4 15.2 9.06 15.44 8.83C15.68 8.61 15.6 8.56 15.6 8.56C15.62 8.28 15.17 8.56 15.17 8.56L7.4 13.55L4.17 12.45C4.17 12.45 3.67 12.27 3.62 11.88C3.57 11.49 4.18 11.28 4.18 11.28L17.04 6.17C17.04 6.17 18.1 5.7 18.1 6.48L15.81 18.18Z" fill="#BA75FE" fill-opacity="1.000000" fill-rule="evenodd"/>
</svg>
