<svg width="24.000000" height="24.000000" viewBox="0 0 24 24" fill="none" xmlns="http://www.w3.org/2000/svg" xmlns:xlink="http://www.w3.org/1999/xlink">
	<desc>
			Created with Pixso.
	</desc>
	<defs/>
	<path id="Vector" d="M12 0C5.37 0 0 5.37 0 12C0 18.62 5.37 24 12 24C18.62 24 24 18.62 24 12C24 5.37 18.62 0 12 0ZM16.61 13.53C16.61 13.53 17.67 14.58 17.93 15.07C17.94 15.08 17.94 15.09 17.95 15.09C18.05 15.27 18.08 15.41 18.02 15.51C17.94 15.69 17.64 15.77 17.54 15.78L15.66 15.78C15.53 15.78 15.26 15.75 14.93 15.52C14.67 15.34 14.42 15.05 14.18 14.77C13.82 14.34 13.5 13.98 13.18 13.98C13.14 13.98 13.1 13.98 13.06 14C12.83 14.07 12.52 14.42 12.52 15.33C12.52 15.61 12.29 15.78 12.13 15.78L11.27 15.78C10.98 15.78 9.46 15.67 8.11 14.25C6.46 12.51 4.97 9.01 4.96 8.98C4.86 8.75 5.06 8.63 5.27 8.63L7.16 8.63C7.41 8.63 7.5 8.78 7.55 8.92C7.62 9.08 7.87 9.71 8.27 10.42C8.93 11.58 9.34 12.05 9.66 12.05C9.72 12.05 9.78 12.03 9.83 12C10.26 11.77 10.18 10.26 10.16 9.95C10.16 9.89 10.16 9.28 9.94 8.98C9.79 8.77 9.52 8.68 9.36 8.65C9.43 8.57 9.51 8.49 9.61 8.44C9.9 8.3 10.43 8.28 10.94 8.28L11.23 8.28C11.79 8.29 11.94 8.32 12.14 8.37C12.56 8.47 12.56 8.74 12.53 9.65C12.52 9.91 12.51 10.2 12.51 10.55C12.51 10.62 12.5 10.7 12.5 10.79C12.49 11.25 12.48 11.78 12.8 11.99C12.85 12.02 12.89 12.03 12.95 12.03C13.06 12.03 13.4 12.03 14.33 10.44C14.61 9.93 14.86 9.4 15.07 8.85C15.09 8.82 15.15 8.72 15.21 8.68C15.26 8.65 15.31 8.64 15.37 8.64L17.59 8.64C17.83 8.64 18 8.68 18.03 8.77C18.09 8.92 18.02 9.37 17.01 10.75L16.55 11.35C15.63 12.56 15.63 12.62 16.61 13.53Z" fill="#BA75FE" fill-opacity="1.000000" fill-rule="evenodd"/>
</svg>
